# xmcd
# 
# Track frame offsets:
#     150
#     11269
#     39258
#     57212
#     79111
#     102872
#     124728
#     157366
#     180454
#     202701
#     237003
# 
# Disc length: 3405
# 
# Revision: 3
# Processed by: cddbd v1.5.2PL0 Copyright (c) Steve Scherf et al.
# Submitted via: fre:ac v1.0.17
# 
DISCID=7b0d4b0b
DTITLE=Morbid Angel - Illud Divinum Insanus (2011)
DYEAR=0
DGENRE=Death Metal
TTITLE0=Omni Potens
TTITLE1=Too Extreme!
TTITLE2=Existo Vulgoré
TTITLE3=Blades For Baal
TTITLE4=I Am Morbid
TTITLE5=10 More Dead
TTITLE6=Destructos Vs The Earth/Attack
TTITLE7=Nevermore
TTITLE8=Beauty Meets Beast
TTITLE9=Radikult
TTITLE10=Profundis - Mea Culpa
EXTD=
EXTT0=
EXTT1=
EXTT2=
EXTT3=
EXTT4=
EXTT5=
EXTT6=
EXTT7=
EXTT8=
EXTT9=
EXTT10=
PLAYORDER=
